<svg width="576" height="512" viewBox="0 0 576 512" fill="none" xmlns="http://www.w3.org/2000/svg">
<path d="M312 311.1V487.1C312 501.3 301.3 512 288 512C274.7 512 264 501.25 264 488.9V311.1C264 298.7 274.7 288 288 288C301.3 288 312 298.7 312 311.1Z" fill="#177500"/>
<path opacity="0.8" d="M544 374.4C544 380.4 540.75 385.78 535.5 388.52C533 389.895 474.75 420.27 402 420.27C395.875 420.27 390.9 420.145 384.5 420.02C395.88 442.27 401 458.27 401.25 459.15C403.125 464.9 401.625 471.15 397.375 475.27C393.25 479.52 386.995 481.02 381.255 479.27C379.624 478.805 348.315 468.61 312.005 445.21V311.1C312 298.7 301.3 288 288 288C274.7 288 264 298.7 264 311.1V444.3C227.69 467.7 196.38 477.89 194.75 478.36C189 480.11 182.75 478.61 178.63 474.36C174.38 470.11 172.88 463.98 174.755 458.24C175 458.3 180.1 442.1 191.5 420C186 420.125 180.12 420.25 174 420.25C101.25 420.25 43.9 389.87 40.5 388.5C35.25 385.8 32 380.4 32 374.4C32 368.525 35.25 363.02 40.5 360.28C42.125 359.405 72.88 343.4 117.25 334.53C53 259.4 33.25 172.73 32.37 168.73C31.25 163.5 32.75 157.9 36.63 154C39.75 151 43.75 149.4 48 149.4C49.125 149.4 50.25 149.525 51.375 149.775C55.375 150.65 137.995 169.275 211.975 229.525V225.1C211.975 106.2 271.975 11.3 274.475 7.3C277.5 2.75 282.5 0 288 0C293.5 0 298.5 2.75 301.5 7.375C304 11.38 364 106.3 364 225.1V229.5C437.1 169.25 520.6 150.5 524.5 149.75C525.8 149.5 526.9 149.4 528 149.4C532.25 149.4 536.25 151.025 539.38 154.025C543.13 157.9 544.755 163.525 543.63 168.775C542.755 172.775 523.01 259.405 458.75 334.575C503.13 343.45 533.88 359.455 535.5 360.325C540.8 363 544 368.5 544 374.4Z" fill="#128300" fill-opacity="0.85"/>
</svg>
